<?xml version="1.0" encoding="UTF-8" standalone="no"?>
<!DOCTYPE svg PUBLIC "-//W3C//DTD SVG 1.1//EN"
 "http://www.w3.org/Graphics/SVG/1.1/DTD/svg11.dtd">
<!-- Generated by graphviz version 2.43.0 (0)
 -->
<!-- Title: com.teragrep.pth_06.planner.MockDBRow.logtime Pages: 1 -->
<svg width="644pt" height="307pt"
 viewBox="0.00 0.00 644.00 306.50" xmlns="http://www.w3.org/2000/svg" xmlns:xlink="http://www.w3.org/1999/xlink">
<g id="graph0" class="graph" transform="scale(1 1) rotate(0) translate(4 302.5)">
<title>com.teragrep.pth_06.planner.MockDBRow.logtime</title>
<!-- Node1 -->
<g id="Node000001" class="node">
<title>Node1</title>
<g id="a_Node000001"><a xlink:title=" ">
<polygon fill="#999999" stroke="#666666" points="636,-161 476,-161 476,-131 636,-131 636,-161"/>
<text text-anchor="start" x="484" y="-149" font-family="Helvetica,sans-Serif" font-size="10.00">com.teragrep.pth_06.planner.</text>
<text text-anchor="middle" x="556" y="-138" font-family="Helvetica,sans-Serif" font-size="10.00">MockDBRow.logtime</text>
</a>
</g>
</g>
<!-- Node2 -->
<g id="Node000002" class="node">
<title>Node2</title>
<g id="a_Node000002"><a xlink:href="classcom_1_1teragrep_1_1pth__06_1_1planner_1_1RecordableMockDBRow.html#a5d01e7e5a34afbe40f547160e6cfe0cb" target="_top" xlink:title=" ">
<polygon fill="white" stroke="#666666" points="426,-293 246,-293 246,-263 426,-263 426,-293"/>
<text text-anchor="start" x="254" y="-281" font-family="Helvetica,sans-Serif" font-size="10.00">com.teragrep.pth_06.planner.</text>
<text text-anchor="middle" x="336" y="-270" font-family="Helvetica,sans-Serif" font-size="10.00">RecordableMockDBRow.asRecord</text>
</a>
</g>
</g>
<!-- Node1&#45;&gt;Node2 -->
<g id="edge1_Node000001_Node000002" class="edge">
<title>Node1&#45;&gt;Node2</title>
<g id="a_edge1_Node000001_Node000002"><a xlink:title=" ">
<path fill="none" stroke="#63b8ff" d="M536.96,-169.01C516.24,-193.83 479.92,-232.63 440,-254 433.52,-257.47 426.56,-260.43 419.41,-262.98"/>
<polygon fill="#63b8ff" stroke="#63b8ff" points="539.74,-171.13 543.37,-161.18 534.33,-166.7 539.74,-171.13"/>
</a>
</g>
</g>
<!-- Node4 -->
<g id="Node000004" class="node">
<title>Node4</title>
<g id="a_Node000004"><a xlink:href="classcom_1_1teragrep_1_1pth__06_1_1planner_1_1MockDBRowImpl.html#a8071f9820d4cfbfa5181f223a2e3b338" target="_top" xlink:title=" ">
<polygon fill="white" stroke="#666666" points="416,-245 256,-245 256,-215 416,-215 416,-245"/>
<text text-anchor="start" x="264" y="-233" font-family="Helvetica,sans-Serif" font-size="10.00">com.teragrep.pth_06.planner.</text>
<text text-anchor="middle" x="336" y="-222" font-family="Helvetica,sans-Serif" font-size="10.00">MockDBRowImpl.compareTo</text>
</a>
</g>
</g>
<!-- Node1&#45;&gt;Node4 -->
<g id="edge3_Node000001_Node000004" class="edge">
<title>Node1&#45;&gt;Node4</title>
<g id="a_edge3_Node000001_Node000004"><a xlink:title=" ">
<path fill="none" stroke="#63b8ff" d="M521.49,-166.36C499.09,-179.24 468.58,-195.41 440,-206 430.96,-209.35 421.3,-212.33 411.65,-214.96"/>
<polygon fill="#63b8ff" stroke="#63b8ff" points="523.39,-169.31 530.27,-161.25 519.86,-163.26 523.39,-169.31"/>
</a>
</g>
</g>
<!-- Node5 -->
<g id="Node000005" class="node">
<title>Node5</title>
<g id="a_Node000005"><a xlink:href="classcom_1_1teragrep_1_1pth__06_1_1planner_1_1MockArchiveQueryProcessor.html#a12c256d6ac85464e14dc686b8f062262" target="_top" xlink:title=" ">
<polygon fill="white" stroke="#666666" points="437,-196.5 235,-196.5 235,-155.5 437,-155.5 437,-196.5"/>
<text text-anchor="start" x="243" y="-184.5" font-family="Helvetica,sans-Serif" font-size="10.00">com.teragrep.pth_06.planner.</text>
<text text-anchor="start" x="243" y="-173.5" font-family="Helvetica,sans-Serif" font-size="10.00">MockArchiveQueryProcessor.getInitial</text>
<text text-anchor="middle" x="336" y="-162.5" font-family="Helvetica,sans-Serif" font-size="10.00">Offset</text>
</a>
</g>
</g>
<!-- Node1&#45;&gt;Node5 -->
<g id="edge4_Node000001_Node000005" class="edge">
<title>Node1&#45;&gt;Node5</title>
<g id="a_edge4_Node000001_Node000005"><a xlink:title=" ">
<path fill="none" stroke="#63b8ff" d="M465.88,-158.26C456.48,-159.56 446.87,-160.88 437.35,-162.19"/>
<polygon fill="#63b8ff" stroke="#63b8ff" points="466.56,-161.7 475.99,-156.87 465.6,-154.77 466.56,-161.7"/>
</a>
</g>
</g>
<!-- Node6 -->
<g id="Node000006" class="node">
<title>Node6</title>
<g id="a_Node000006"><a xlink:href="classcom_1_1teragrep_1_1pth__06_1_1planner_1_1MockArchiveQueryProcessor.html#a6dae3696a6814f110950cec3542f554e" target="_top" xlink:title=" ">
<polygon fill="white" stroke="#666666" points="440,-137.5 232,-137.5 232,-96.5 440,-96.5 440,-137.5"/>
<text text-anchor="start" x="240" y="-125.5" font-family="Helvetica,sans-Serif" font-size="10.00">com.teragrep.pth_06.planner.</text>
<text text-anchor="start" x="240" y="-114.5" font-family="Helvetica,sans-Serif" font-size="10.00">MockArchiveQueryProcessor.increment</text>
<text text-anchor="middle" x="336" y="-103.5" font-family="Helvetica,sans-Serif" font-size="10.00">AndGetLatestOffset</text>
</a>
</g>
</g>
<!-- Node1&#45;&gt;Node6 -->
<g id="edge5_Node000001_Node000006" class="edge">
<title>Node1&#45;&gt;Node6</title>
<g id="a_edge5_Node000001_Node000006"><a xlink:title=" ">
<path fill="none" stroke="#63b8ff" d="M465.84,-134.14C457.45,-133.02 448.89,-131.88 440.37,-130.75"/>
<polygon fill="#63b8ff" stroke="#63b8ff" points="465.61,-137.64 475.99,-135.49 466.54,-130.7 465.61,-137.64"/>
</a>
</g>
</g>
<!-- Node7 -->
<g id="Node000007" class="node">
<title>Node7</title>
<g id="a_Node000007"><a xlink:href="classcom_1_1teragrep_1_1pth__06_1_1planner_1_1RecordableMockDBRow.html#a99cb801fd8aa979db79f53a17f8220b7" target="_top" xlink:title=" ">
<polygon fill="white" stroke="#666666" points="422.5,-78 249.5,-78 249.5,-48 422.5,-48 422.5,-78"/>
<text text-anchor="start" x="257.5" y="-66" font-family="Helvetica,sans-Serif" font-size="10.00">com.teragrep.pth_06.planner.</text>
<text text-anchor="middle" x="336" y="-55" font-family="Helvetica,sans-Serif" font-size="10.00">RecordableMockDBRow.logtime</text>
</a>
</g>
</g>
<!-- Node1&#45;&gt;Node7 -->
<g id="edge6_Node000001_Node000007" class="edge">
<title>Node1&#45;&gt;Node7</title>
<g id="a_edge6_Node000001_Node000007"><a xlink:title=" ">
<path fill="none" stroke="#63b8ff" d="M520.5,-125.98C498.13,-113.66 468.03,-98.32 440,-88 429.9,-84.28 419.03,-80.96 408.28,-78.04"/>
<polygon fill="#63b8ff" stroke="#63b8ff" points="518.84,-129.06 529.28,-130.87 522.25,-122.94 518.84,-129.06"/>
</a>
</g>
</g>
<!-- Node8 -->
<g id="Node000008" class="node">
<title>Node8</title>
<g id="a_Node000008"><a xlink:href="classcom_1_1teragrep_1_1pth__06_1_1planner_1_1SliceableMockDBRowSourceImpl.html#a44116ba8a3c333d801a6491ebb8592f1" target="_top" xlink:title=" ">
<polygon fill="white" stroke="#666666" points="437.5,-30 234.5,-30 234.5,0 437.5,0 437.5,-30"/>
<text text-anchor="start" x="242.5" y="-18" font-family="Helvetica,sans-Serif" font-size="10.00">com.teragrep.pth_06.planner.</text>
<text text-anchor="middle" x="336" y="-7" font-family="Helvetica,sans-Serif" font-size="10.00">SliceableMockDBRowSourceImpl.slice</text>
</a>
</g>
</g>
<!-- Node1&#45;&gt;Node8 -->
<g id="edge7_Node000001_Node000008" class="edge">
<title>Node1&#45;&gt;Node8</title>
<g id="a_edge7_Node000001_Node000008"><a xlink:title=" ">
<path fill="none" stroke="#63b8ff" d="M536.91,-123.21C516.15,-98.63 479.8,-60.18 440,-39 433.52,-35.55 426.55,-32.59 419.4,-30.05"/>
<polygon fill="#63b8ff" stroke="#63b8ff" points="534.26,-125.5 543.34,-130.96 539.66,-121.03 534.26,-125.5"/>
</a>
</g>
</g>
<!-- Node3 -->
<g id="Node000003" class="node">
<title>Node3</title>
<g id="a_Node000003"><a xlink:href="classcom_1_1teragrep_1_1pth__06_1_1planner_1_1MockArchiveQueryProcessor.html#a50946d3d03b029b854379437ce092d6e" target="_top" xlink:title=" ">
<polygon fill="white" stroke="#666666" points="196,-298.5 0,-298.5 0,-257.5 196,-257.5 196,-298.5"/>
<text text-anchor="start" x="8" y="-286.5" font-family="Helvetica,sans-Serif" font-size="10.00">com.teragrep.pth_06.planner.</text>
<text text-anchor="start" x="8" y="-275.5" font-family="Helvetica,sans-Serif" font-size="10.00">MockArchiveQueryProcessor.process</text>
<text text-anchor="middle" x="98" y="-264.5" font-family="Helvetica,sans-Serif" font-size="10.00">BetweenUnixEpochHours</text>
</a>
</g>
</g>
<!-- Node2&#45;&gt;Node3 -->
<g id="edge2_Node000002_Node000003" class="edge">
<title>Node2&#45;&gt;Node3</title>
<g id="a_edge2_Node000002_Node000003"><a xlink:title=" ">
<path fill="none" stroke="#63b8ff" d="M235.45,-278C222.46,-278 209.18,-278 196.24,-278"/>
<polygon fill="#63b8ff" stroke="#63b8ff" points="235.78,-281.5 245.78,-278 235.78,-274.5 235.78,-281.5"/>
</a>
</g>
</g>
</g>
</svg>
