<?xml version="1.0" encoding="UTF-8" standalone="no"?>
<!DOCTYPE svg PUBLIC "-//W3C//DTD SVG 1.1//EN"
 "http://www.w3.org/Graphics/SVG/1.1/DTD/svg11.dtd">
<!-- Generated by graphviz version 2.43.0 (0)
 -->
<!-- Title: com.teragrep.pth_06.metadata.KafkaTopicPartitionOffsetMetadataImpl Pages: 1 -->
<svg width="286pt" height="159pt"
 viewBox="0.00 0.00 285.50 159.00" xmlns="http://www.w3.org/2000/svg" xmlns:xlink="http://www.w3.org/1999/xlink">
<g id="graph0" class="graph" transform="scale(1 1) rotate(0) translate(4 155)">
<title>com.teragrep.pth_06.metadata.KafkaTopicPartitionOffsetMetadataImpl</title>
<!-- Node1 -->
<g id="Node000001" class="node">
<title>Node1</title>
<g id="a_Node000001"><a xlink:title=" ">
<polygon fill="#999999" stroke="#666666" points="214.5,-30 7.5,-30 7.5,0 214.5,0 214.5,-30"/>
<text text-anchor="start" x="15.5" y="-18" font-family="Helvetica,sans-Serif" font-size="10.00">com.teragrep.pth_06.metadata.</text>
<text text-anchor="middle" x="111" y="-7" font-family="Helvetica,sans-Serif" font-size="10.00">KafkaTopicPartitionOffsetMetadataImpl</text>
</a>
</g>
</g>
<!-- Node2 -->
<g id="Node000002" class="node">
<title>Node2</title>
<g id="a_Node000002"><a xlink:title=" ">
<polygon fill="white" stroke="#666666" points="74,-90.5 0,-90.5 0,-71.5 74,-71.5 74,-90.5"/>
<text text-anchor="middle" x="37" y="-78.5" font-family="Helvetica,sans-Serif" font-size="10.00">Serializable</text>
</a>
</g>
</g>
<!-- Node2&#45;&gt;Node1 -->
<g id="edge1_Node000001_Node000002" class="edge">
<title>Node2&#45;&gt;Node1</title>
<g id="a_edge1_Node000001_Node000002"><a xlink:title=" ">
<path fill="none" stroke="#63b8ff" d="M54.67,-64.71C66.82,-54.21 82.83,-40.36 94.68,-30.12"/>
<polygon fill="#63b8ff" stroke="#63b8ff" points="52.25,-62.18 46.98,-71.37 56.83,-67.47 52.25,-62.18"/>
</a>
</g>
</g>
<!-- Node3 -->
<g id="Node000003" class="node">
<title>Node3</title>
<g id="a_Node000003"><a xlink:href="interfacecom_1_1teragrep_1_1pth__06_1_1metadata_1_1KafkaTopicPartitionOffsetMetadata.html" target="_top" xlink:title=" ">
<polygon fill="white" stroke="#666666" points="277.5,-96 92.5,-96 92.5,-66 277.5,-66 277.5,-96"/>
<text text-anchor="start" x="100.5" y="-84" font-family="Helvetica,sans-Serif" font-size="10.00">com.teragrep.pth_06.metadata.</text>
<text text-anchor="middle" x="185" y="-73" font-family="Helvetica,sans-Serif" font-size="10.00">KafkaTopicPartitionOffsetMetadata</text>
</a>
</g>
</g>
<!-- Node3&#45;&gt;Node1 -->
<g id="edge2_Node000001_Node000003" class="edge">
<title>Node3&#45;&gt;Node1</title>
<g id="a_edge2_Node000001_Node000003"><a xlink:title=" ">
<path fill="none" stroke="#63b8ff" d="M160.95,-59.2C149.97,-49.7 137.24,-38.69 127.38,-30.16"/>
<polygon fill="#63b8ff" stroke="#63b8ff" points="158.72,-61.9 168.58,-65.8 163.3,-56.61 158.72,-61.9"/>
</a>
</g>
</g>
<!-- Node4 -->
<g id="Node000004" class="node">
<title>Node4</title>
<g id="a_Node000004"><a xlink:href="interfacecom_1_1teragrep_1_1pth__06_1_1Stubable.html" target="_top" xlink:title=" ">
<polygon fill="white" stroke="#666666" points="267,-151 103,-151 103,-132 267,-132 267,-151"/>
<text text-anchor="middle" x="185" y="-139" font-family="Helvetica,sans-Serif" font-size="10.00">com.teragrep.pth_06.Stubable</text>
</a>
</g>
</g>
<!-- Node4&#45;&gt;Node3 -->
<g id="edge3_Node000003_Node000004" class="edge">
<title>Node4&#45;&gt;Node3</title>
<g id="a_edge3_Node000003_Node000004"><a xlink:title=" ">
<path fill="none" stroke="#63b8ff" d="M185,-121.65C185,-113.36 185,-103.78 185,-96.11"/>
<polygon fill="#63b8ff" stroke="#63b8ff" points="181.5,-121.87 185,-131.87 188.5,-121.87 181.5,-121.87"/>
</a>
</g>
</g>
</g>
</svg>
