<?xml version="1.0" encoding="UTF-8" standalone="no"?>
<!DOCTYPE svg PUBLIC "-//W3C//DTD SVG 1.1//EN"
 "http://www.w3.org/Graphics/SVG/1.1/DTD/svg11.dtd">
<!-- Generated by graphviz version 2.43.0 (0)
 -->
<!-- Title: com.teragrep.pth_06.scheduler.BatchSliceImpl Pages: 1 -->
<svg width="270pt" height="115pt"
 viewBox="0.00 0.00 270.00 115.00" xmlns="http://www.w3.org/2000/svg" xmlns:xlink="http://www.w3.org/1999/xlink">
<g id="graph0" class="graph" transform="scale(1 1) rotate(0) translate(4 111)">
<title>com.teragrep.pth_06.scheduler.BatchSliceImpl</title>
<!-- Node1 -->
<g id="Node000001" class="node">
<title>Node1</title>
<g id="a_Node000001"><a xlink:title=" ">
<polygon fill="#999999" stroke="#666666" points="229,-30 59,-30 59,0 229,0 229,-30"/>
<text text-anchor="start" x="67" y="-18" font-family="Helvetica,sans-Serif" font-size="10.00">com.teragrep.pth_06.scheduler.</text>
<text text-anchor="middle" x="144" y="-7" font-family="Helvetica,sans-Serif" font-size="10.00">BatchSliceImpl</text>
</a>
</g>
</g>
<!-- Node2 -->
<g id="Node000002" class="node">
<title>Node2</title>
<g id="a_Node000002"><a xlink:title=" ">
<polygon fill="white" stroke="#666666" points="74,-101.5 0,-101.5 0,-82.5 74,-82.5 74,-101.5"/>
<text text-anchor="middle" x="37" y="-89.5" font-family="Helvetica,sans-Serif" font-size="10.00">Serializable</text>
</a>
</g>
</g>
<!-- Node2&#45;&gt;Node1 -->
<g id="edge1_Node000001_Node000002" class="edge">
<title>Node2&#45;&gt;Node1</title>
<g id="a_edge1_Node000001_Node000002"><a xlink:title=" ">
<path fill="none" stroke="#63b8ff" d="M57.58,-76.57C76.68,-63.19 104.92,-43.39 123.87,-30.11"/>
<polygon fill="#63b8ff" stroke="#63b8ff" points="55.45,-73.79 49.27,-82.4 59.47,-79.52 55.45,-73.79"/>
</a>
</g>
</g>
<!-- Node3 -->
<g id="Node000003" class="node">
<title>Node3</title>
<g id="a_Node000003"><a xlink:href="interfacecom_1_1teragrep_1_1pth__06_1_1scheduler_1_1BatchSlice.html" target="_top" xlink:title=" ">
<polygon fill="white" stroke="#666666" points="262,-107 92,-107 92,-77 262,-77 262,-107"/>
<text text-anchor="start" x="100" y="-95" font-family="Helvetica,sans-Serif" font-size="10.00">com.teragrep.pth_06.scheduler.</text>
<text text-anchor="middle" x="177" y="-84" font-family="Helvetica,sans-Serif" font-size="10.00">BatchSlice</text>
</a>
</g>
</g>
<!-- Node3&#45;&gt;Node1 -->
<g id="edge2_Node000001_Node000003" class="edge">
<title>Node3&#45;&gt;Node1</title>
<g id="a_edge2_Node000001_Node000003"><a xlink:title=" ">
<path fill="none" stroke="#63b8ff" d="M162.42,-67.8C160.83,-64.89 159.32,-61.91 158,-59 153.79,-49.7 150.24,-38.76 147.78,-30.24"/>
<polygon fill="#63b8ff" stroke="#63b8ff" points="159.55,-69.82 167.6,-76.71 165.6,-66.3 159.55,-69.82"/>
</a>
</g>
</g>
<!-- Node3&#45;&gt;Node1 -->
<g id="edge3_Node000001_Node000003" class="edge">
<title>Node3&#45;&gt;Node1</title>
<g id="a_edge3_Node000001_Node000003"><a xlink:title=" ">
<path fill="none" stroke="#9a32cd" stroke-dasharray="5,2" d="M166.72,-67.65C161.3,-55.32 154.83,-40.61 150.18,-30.04"/>
<polygon fill="#9a32cd" stroke="#9a32cd" points="163.56,-69.15 170.79,-76.89 169.97,-66.33 163.56,-69.15"/>
</a>
</g>
<text text-anchor="middle" x="174.5" y="-51" font-family="Helvetica,sans-Serif" font-size="10.00" fill="grey"> type</text>
</g>
</g>
</svg>
