<?xml version="1.0" encoding="UTF-8" standalone="no"?>
<!DOCTYPE svg PUBLIC "-//W3C//DTD SVG 1.1//EN"
 "http://www.w3.org/Graphics/SVG/1.1/DTD/svg11.dtd">
<!-- Generated by graphviz version 2.43.0 (0)
 -->
<!-- Title: com.teragrep.pth_06.metadata.ArchiveS3ObjectMetadataImpl Pages: 1 -->
<svg width="272pt" height="159pt"
 viewBox="0.00 0.00 271.50 159.00" xmlns="http://www.w3.org/2000/svg" xmlns:xlink="http://www.w3.org/1999/xlink">
<g id="graph0" class="graph" transform="scale(1 1) rotate(0) translate(4 155)">
<title>com.teragrep.pth_06.metadata.ArchiveS3ObjectMetadataImpl</title>
<!-- Node1 -->
<g id="Node000001" class="node">
<title>Node1</title>
<g id="a_Node000001"><a xlink:title=" ">
<polygon fill="#999999" stroke="#666666" points="192.5,-30 21.5,-30 21.5,0 192.5,0 192.5,-30"/>
<text text-anchor="start" x="29.5" y="-18" font-family="Helvetica,sans-Serif" font-size="10.00">com.teragrep.pth_06.metadata.</text>
<text text-anchor="middle" x="107" y="-7" font-family="Helvetica,sans-Serif" font-size="10.00">ArchiveS3ObjectMetadataImpl</text>
</a>
</g>
</g>
<!-- Node2 -->
<g id="Node000002" class="node">
<title>Node2</title>
<g id="a_Node000002"><a xlink:title=" ">
<polygon fill="white" stroke="#666666" points="74,-90.5 0,-90.5 0,-71.5 74,-71.5 74,-90.5"/>
<text text-anchor="middle" x="37" y="-78.5" font-family="Helvetica,sans-Serif" font-size="10.00">Serializable</text>
</a>
</g>
</g>
<!-- Node2&#45;&gt;Node1 -->
<g id="edge1_Node000001_Node000002" class="edge">
<title>Node2&#45;&gt;Node1</title>
<g id="a_edge1_Node000001_Node000002"><a xlink:title=" ">
<path fill="none" stroke="#63b8ff" d="M54.05,-64.41C65.5,-53.94 80.46,-40.26 91.56,-30.12"/>
<polygon fill="#63b8ff" stroke="#63b8ff" points="51.46,-62.04 46.44,-71.37 56.18,-67.2 51.46,-62.04"/>
</a>
</g>
</g>
<!-- Node3 -->
<g id="Node000003" class="node">
<title>Node3</title>
<g id="a_Node000003"><a xlink:href="interfacecom_1_1teragrep_1_1pth__06_1_1metadata_1_1ArchiveS3ObjectMetadata.html" target="_top" xlink:title=" ">
<polygon fill="white" stroke="#666666" points="263.5,-96 92.5,-96 92.5,-66 263.5,-66 263.5,-96"/>
<text text-anchor="start" x="100.5" y="-84" font-family="Helvetica,sans-Serif" font-size="10.00">com.teragrep.pth_06.metadata.</text>
<text text-anchor="middle" x="178" y="-73" font-family="Helvetica,sans-Serif" font-size="10.00">ArchiveS3ObjectMetadata</text>
</a>
</g>
</g>
<!-- Node3&#45;&gt;Node1 -->
<g id="edge2_Node000001_Node000003" class="edge">
<title>Node3&#45;&gt;Node1</title>
<g id="a_edge2_Node000001_Node000003"><a xlink:title=" ">
<path fill="none" stroke="#63b8ff" d="M154.62,-58.92C144.15,-49.49 132.08,-38.61 122.71,-30.16"/>
<polygon fill="#63b8ff" stroke="#63b8ff" points="152.47,-61.7 162.24,-65.8 157.16,-56.5 152.47,-61.7"/>
</a>
</g>
</g>
<!-- Node4 -->
<g id="Node000004" class="node">
<title>Node4</title>
<g id="a_Node000004"><a xlink:href="interfacecom_1_1teragrep_1_1pth__06_1_1Stubable.html" target="_top" xlink:title=" ">
<polygon fill="white" stroke="#666666" points="260,-151 96,-151 96,-132 260,-132 260,-151"/>
<text text-anchor="middle" x="178" y="-139" font-family="Helvetica,sans-Serif" font-size="10.00">com.teragrep.pth_06.Stubable</text>
</a>
</g>
</g>
<!-- Node4&#45;&gt;Node3 -->
<g id="edge3_Node000003_Node000004" class="edge">
<title>Node4&#45;&gt;Node3</title>
<g id="a_edge3_Node000003_Node000004"><a xlink:title=" ">
<path fill="none" stroke="#63b8ff" d="M178,-121.65C178,-113.36 178,-103.78 178,-96.11"/>
<polygon fill="#63b8ff" stroke="#63b8ff" points="174.5,-121.87 178,-131.87 181.5,-121.87 174.5,-121.87"/>
</a>
</g>
</g>
</g>
</svg>
