<?xml version="1.0" encoding="UTF-8" standalone="no"?>
<!DOCTYPE svg PUBLIC "-//W3C//DTD SVG 1.1//EN"
 "http://www.w3.org/Graphics/SVG/1.1/DTD/svg11.dtd">
<!-- Generated by graphviz version 2.43.0 (0)
 -->
<!-- Title: Graphical Class Hierarchy Pages: 1 -->
<svg width="636pt" height="422pt"
 viewBox="0.00 0.00 636.00 422.00" xmlns="http://www.w3.org/2000/svg" xmlns:xlink="http://www.w3.org/1999/xlink">
<g id="graph0" class="graph" transform="scale(1 1) rotate(0) translate(4 418)">
<title>Graphical Class Hierarchy</title>
<!-- Node0 -->
<g id="Node000000" class="node">
<title>Node0</title>
<g id="a_Node000000"><a xlink:href="interfacecom_1_1teragrep_1_1pth__06_1_1scheduler_1_1BatchSlice.html" target="_top" xlink:title=" ">
<polygon fill="white" stroke="#666666" points="377.5,-414 207.5,-414 207.5,-384 377.5,-384 377.5,-414"/>
<text text-anchor="start" x="215.5" y="-402" font-family="Helvetica,sans-Serif" font-size="10.00">com.teragrep.pth_06.scheduler.</text>
<text text-anchor="middle" x="292.5" y="-391" font-family="Helvetica,sans-Serif" font-size="10.00">BatchSlice</text>
</a>
</g>
</g>
<!-- Node1 -->
<g id="Node000001" class="node">
<title>Node1</title>
<g id="a_Node000001"><a xlink:href="classcom_1_1teragrep_1_1pth__06_1_1scheduler_1_1BatchSliceImpl.html" target="_top" xlink:title=" ">
<polygon fill="white" stroke="#666666" points="609.5,-414 439.5,-414 439.5,-384 609.5,-384 609.5,-414"/>
<text text-anchor="start" x="447.5" y="-402" font-family="Helvetica,sans-Serif" font-size="10.00">com.teragrep.pth_06.scheduler.</text>
<text text-anchor="middle" x="524.5" y="-391" font-family="Helvetica,sans-Serif" font-size="10.00">BatchSliceImpl</text>
</a>
</g>
</g>
<!-- Node0&#45;&gt;Node1 -->
<g id="edge35_Node000000_Node000001" class="edge">
<title>Node0&#45;&gt;Node1</title>
<g id="a_edge35_Node000000_Node000001"><a xlink:title=" ">
<path fill="none" stroke="#63b8ff" d="M387.53,-399C404.68,-399 422.48,-399 439.33,-399"/>
<polygon fill="#63b8ff" stroke="#63b8ff" points="387.51,-395.5 377.51,-399 387.51,-402.5 387.51,-395.5"/>
</a>
</g>
</g>
<!-- Node11 -->
<g id="Node000011" class="node">
<title>Node11</title>
<g id="a_Node000011"><a xlink:title=" ">
<polygon fill="#e0e0e0" stroke="#999999" points="315.5,-336.5 269.5,-336.5 269.5,-317.5 315.5,-317.5 315.5,-336.5"/>
<text text-anchor="middle" x="292.5" y="-324.5" font-family="Helvetica,sans-Serif" font-size="10.00">Offset</text>
</a>
</g>
</g>
<!-- Node10 -->
<g id="Node000010" class="node">
<title>Node10</title>
<g id="a_Node000010"><a xlink:href="classcom_1_1teragrep_1_1pth__06_1_1planner_1_1offset_1_1DatasourceOffset.html" target="_top" xlink:title=" ">
<polygon fill="white" stroke="#666666" points="620,-318 429,-318 429,-288 620,-288 620,-318"/>
<text text-anchor="start" x="437" y="-306" font-family="Helvetica,sans-Serif" font-size="10.00">com.teragrep.pth_06.planner.offset.</text>
<text text-anchor="middle" x="524.5" y="-295" font-family="Helvetica,sans-Serif" font-size="10.00">DatasourceOffset</text>
</a>
</g>
</g>
<!-- Node11&#45;&gt;Node10 -->
<g id="edge36_Node000011_Node000010" class="edge">
<title>Node11&#45;&gt;Node10</title>
<g id="a_edge36_Node000011_Node000010"><a xlink:title=" ">
<path fill="none" stroke="#63b8ff" d="M325.52,-323.66C352.35,-320.86 392.06,-316.72 428.89,-312.87"/>
<polygon fill="#63b8ff" stroke="#63b8ff" points="325.14,-320.18 315.55,-324.7 325.86,-327.14 325.14,-320.18"/>
</a>
</g>
</g>
<!-- Node12 -->
<g id="Node000012" class="node">
<title>Node12</title>
<g id="a_Node000012"><a xlink:href="classcom_1_1teragrep_1_1pth__06_1_1planner_1_1offset_1_1KafkaOffset.html" target="_top" xlink:title=" ">
<polygon fill="white" stroke="#666666" points="620,-366 429,-366 429,-336 620,-336 620,-366"/>
<text text-anchor="start" x="437" y="-354" font-family="Helvetica,sans-Serif" font-size="10.00">com.teragrep.pth_06.planner.offset.</text>
<text text-anchor="middle" x="524.5" y="-343" font-family="Helvetica,sans-Serif" font-size="10.00">KafkaOffset</text>
</a>
</g>
</g>
<!-- Node11&#45;&gt;Node12 -->
<g id="edge37_Node000011_Node000012" class="edge">
<title>Node11&#45;&gt;Node12</title>
<g id="a_edge37_Node000011_Node000012"><a xlink:title=" ">
<path fill="none" stroke="#63b8ff" d="M325.52,-330.34C352.35,-333.14 392.06,-337.28 428.89,-341.13"/>
<polygon fill="#63b8ff" stroke="#63b8ff" points="325.86,-326.86 315.55,-329.3 325.14,-333.82 325.86,-326.86"/>
</a>
</g>
</g>
<!-- Node2 -->
<g id="Node000002" class="node">
<title>Node2</title>
<g id="a_Node000002"><a xlink:title=" ">
<polygon fill="#e0e0e0" stroke="#999999" points="329.5,-264.5 255.5,-264.5 255.5,-245.5 329.5,-245.5 329.5,-264.5"/>
<text text-anchor="middle" x="292.5" y="-252.5" font-family="Helvetica,sans-Serif" font-size="10.00">Serializable</text>
</a>
</g>
</g>
<!-- Node2&#45;&gt;Node1 -->
<g id="edge43_Node000002_Node000001" class="edge">
<title>Node2&#45;&gt;Node1</title>
<g id="a_edge43_Node000002_Node000001"><a xlink:title=" ">
<path fill="none" stroke="#63b8ff" d="M326.05,-268.83C344.99,-278.1 368.33,-291.76 385,-309 408.22,-333.02 394.41,-354.76 421,-375 426.6,-379.26 432.83,-382.79 439.38,-385.7"/>
<polygon fill="#63b8ff" stroke="#63b8ff" points="327.42,-265.61 316.89,-264.51 324.44,-271.94 327.42,-265.61"/>
</a>
</g>
</g>
<!-- Node2&#45;&gt;Node10 -->
<g id="edge40_Node000002_Node000010" class="edge">
<title>Node2&#45;&gt;Node10</title>
<g id="a_edge40_Node000002_Node000010"><a xlink:title=" ">
<path fill="none" stroke="#63b8ff" d="M339.66,-264.63C371.64,-271.31 414.86,-280.33 451.36,-287.94"/>
<polygon fill="#63b8ff" stroke="#63b8ff" points="340.19,-261.17 329.69,-262.55 338.76,-268.02 340.19,-261.17"/>
</a>
</g>
</g>
<!-- Node2&#45;&gt;Node12 -->
<g id="edge41_Node000002_Node000012" class="edge">
<title>Node2&#45;&gt;Node12</title>
<g id="a_edge41_Node000002_Node000012"><a xlink:title=" ">
<path fill="none" stroke="#63b8ff" d="M318.02,-269.95C348.9,-288.59 400.4,-318.96 421,-327 429.68,-330.39 438.97,-333.38 448.29,-336"/>
<polygon fill="#63b8ff" stroke="#63b8ff" points="319.53,-266.77 309.16,-264.59 315.9,-272.76 319.53,-266.77"/>
</a>
</g>
</g>
<!-- Node3 -->
<g id="Node000003" class="node">
<title>Node3</title>
<g id="a_Node000003"><a xlink:href="classcom_1_1teragrep_1_1pth__06_1_1metadata_1_1ArchiveS3ObjectMetadataImpl.html" target="_top" xlink:title=" ">
<polygon fill="white" stroke="#666666" points="610,-126 439,-126 439,-96 610,-96 610,-126"/>
<text text-anchor="start" x="447" y="-114" font-family="Helvetica,sans-Serif" font-size="10.00">com.teragrep.pth_06.metadata.</text>
<text text-anchor="middle" x="524.5" y="-103" font-family="Helvetica,sans-Serif" font-size="10.00">ArchiveS3ObjectMetadataImpl</text>
</a>
</g>
</g>
<!-- Node2&#45;&gt;Node3 -->
<g id="edge38_Node000002_Node000003" class="edge">
<title>Node2&#45;&gt;Node3</title>
<g id="a_edge38_Node000002_Node000003"><a xlink:title=" ">
<path fill="none" stroke="#63b8ff" d="M306.95,-237.44C328.19,-210.99 372.15,-161.22 421,-135 427.44,-131.54 434.37,-128.58 441.48,-126.04"/>
<polygon fill="#63b8ff" stroke="#63b8ff" points="304.08,-235.43 300.64,-245.45 309.58,-239.76 304.08,-235.43"/>
</a>
</g>
</g>
<!-- Node8 -->
<g id="Node000008" class="node">
<title>Node8</title>
<g id="a_Node000008"><a xlink:href="classcom_1_1teragrep_1_1pth__06_1_1metadata_1_1KafkaTopicPartitionOffsetMetadataImpl.html" target="_top" xlink:title=" ">
<polygon fill="white" stroke="#666666" points="628,-174 421,-174 421,-144 628,-144 628,-174"/>
<text text-anchor="start" x="429" y="-162" font-family="Helvetica,sans-Serif" font-size="10.00">com.teragrep.pth_06.metadata.</text>
<text text-anchor="middle" x="524.5" y="-151" font-family="Helvetica,sans-Serif" font-size="10.00">KafkaTopicPartitionOffsetMetadataImpl</text>
</a>
</g>
</g>
<!-- Node2&#45;&gt;Node8 -->
<g id="edge39_Node000002_Node000008" class="edge">
<title>Node2&#45;&gt;Node8</title>
<g id="a_edge39_Node000002_Node000008"><a xlink:title=" ">
<path fill="none" stroke="#63b8ff" d="M316,-239.67C340.74,-223.45 382.15,-198.16 421,-183 429.68,-179.61 438.97,-176.62 448.29,-174"/>
<polygon fill="#63b8ff" stroke="#63b8ff" points="313.76,-236.95 307.37,-245.4 317.64,-242.78 313.76,-236.95"/>
</a>
</g>
</g>
<!-- Node13 -->
<g id="Node000013" class="node">
<title>Node13</title>
<g id="a_Node000013"><a xlink:href="classcom_1_1teragrep_1_1pth__06_1_1planner_1_1offset_1_1SerializedDatasourceOffset.html" target="_top" xlink:title=" ">
<polygon fill="white" stroke="#666666" points="620,-222 429,-222 429,-192 620,-192 620,-222"/>
<text text-anchor="start" x="437" y="-210" font-family="Helvetica,sans-Serif" font-size="10.00">com.teragrep.pth_06.planner.offset.</text>
<text text-anchor="middle" x="524.5" y="-199" font-family="Helvetica,sans-Serif" font-size="10.00">SerializedDatasourceOffset</text>
</a>
</g>
</g>
<!-- Node2&#45;&gt;Node13 -->
<g id="edge42_Node000002_Node000013" class="edge">
<title>Node2&#45;&gt;Node13</title>
<g id="a_edge42_Node000002_Node000013"><a xlink:title=" ">
<path fill="none" stroke="#63b8ff" d="M339.66,-245.37C371.64,-238.69 414.86,-229.67 451.36,-222.06"/>
<polygon fill="#63b8ff" stroke="#63b8ff" points="338.76,-241.98 329.69,-247.45 340.19,-248.83 338.76,-241.98"/>
</a>
</g>
</g>
<!-- Node14 -->
<g id="Node000014" class="node">
<title>Node14</title>
<g id="a_Node000014"><a xlink:href="classcom_1_1teragrep_1_1pth__06_1_1task_1_1Metadata.html" target="_top" xlink:title=" ">
<polygon fill="white" stroke="#666666" points="597,-270 452,-270 452,-240 597,-240 597,-270"/>
<text text-anchor="start" x="460" y="-258" font-family="Helvetica,sans-Serif" font-size="10.00">com.teragrep.pth_06.task.</text>
<text text-anchor="middle" x="524.5" y="-247" font-family="Helvetica,sans-Serif" font-size="10.00">Metadata</text>
</a>
</g>
</g>
<!-- Node2&#45;&gt;Node14 -->
<g id="edge44_Node000002_Node000014" class="edge">
<title>Node2&#45;&gt;Node14</title>
<g id="a_edge44_Node000002_Node000014"><a xlink:title=" ">
<path fill="none" stroke="#63b8ff" d="M339.7,-255C371.81,-255 415.25,-255 451.83,-255"/>
<polygon fill="#63b8ff" stroke="#63b8ff" points="339.69,-251.5 329.69,-255 339.69,-258.5 339.69,-251.5"/>
</a>
</g>
</g>
<!-- Node6 -->
<g id="Node000006" class="node">
<title>Node6</title>
<g id="a_Node000006"><a xlink:href="interfacecom_1_1teragrep_1_1pth__06_1_1Stubable.html" target="_top" xlink:title=" ">
<polygon fill="white" stroke="#666666" points="164,-96.5 0,-96.5 0,-77.5 164,-77.5 164,-96.5"/>
<text text-anchor="middle" x="82" y="-84.5" font-family="Helvetica,sans-Serif" font-size="10.00">com.teragrep.pth_06.Stubable</text>
</a>
</g>
</g>
<!-- Node4 -->
<g id="Node000004" class="node">
<title>Node4</title>
<g id="a_Node000004"><a xlink:href="interfacecom_1_1teragrep_1_1pth__06_1_1metadata_1_1ArchiveS3ObjectMetadata.html" target="_top" xlink:title=" ">
<polygon fill="white" stroke="#666666" points="378,-78 207,-78 207,-48 378,-48 378,-78"/>
<text text-anchor="start" x="215" y="-66" font-family="Helvetica,sans-Serif" font-size="10.00">com.teragrep.pth_06.metadata.</text>
<text text-anchor="middle" x="292.5" y="-55" font-family="Helvetica,sans-Serif" font-size="10.00">ArchiveS3ObjectMetadata</text>
</a>
</g>
</g>
<!-- Node6&#45;&gt;Node4 -->
<g id="edge45_Node000006_Node000004" class="edge">
<title>Node6&#45;&gt;Node4</title>
<g id="a_edge45_Node000006_Node000004"><a xlink:title=" ">
<path fill="none" stroke="#63b8ff" d="M174.43,-76.48C185.17,-75.24 196.09,-73.98 206.73,-72.76"/>
<polygon fill="#63b8ff" stroke="#63b8ff" points="173.74,-73.03 164.21,-77.65 174.54,-79.99 173.74,-73.03"/>
</a>
</g>
</g>
<!-- Node7 -->
<g id="Node000007" class="node">
<title>Node7</title>
<g id="a_Node000007"><a xlink:href="interfacecom_1_1teragrep_1_1pth__06_1_1metadata_1_1KafkaTopicPartitionOffsetMetadata.html" target="_top" xlink:title=" ">
<polygon fill="white" stroke="#666666" points="385,-126 200,-126 200,-96 385,-96 385,-126"/>
<text text-anchor="start" x="208" y="-114" font-family="Helvetica,sans-Serif" font-size="10.00">com.teragrep.pth_06.metadata.</text>
<text text-anchor="middle" x="292.5" y="-103" font-family="Helvetica,sans-Serif" font-size="10.00">KafkaTopicPartitionOffsetMetadata</text>
</a>
</g>
</g>
<!-- Node6&#45;&gt;Node7 -->
<g id="edge48_Node000006_Node000007" class="edge">
<title>Node6&#45;&gt;Node7</title>
<g id="a_edge48_Node000006_Node000007"><a xlink:title=" ">
<path fill="none" stroke="#63b8ff" d="M174.41,-97.52C182.83,-98.49 191.36,-99.47 199.79,-100.44"/>
<polygon fill="#63b8ff" stroke="#63b8ff" points="174.54,-94.01 164.21,-96.35 173.74,-100.97 174.54,-94.01"/>
</a>
</g>
</g>
<!-- Node4&#45;&gt;Node3 -->
<g id="edge46_Node000004_Node000003" class="edge">
<title>Node4&#45;&gt;Node3</title>
<g id="a_edge46_Node000004_Node000003"><a xlink:title=" ">
<path fill="none" stroke="#63b8ff" d="M375.75,-80.17C400.54,-85.34 427.55,-90.98 451.61,-96"/>
<polygon fill="#63b8ff" stroke="#63b8ff" points="376.15,-76.67 365.64,-78.06 374.72,-83.53 376.15,-76.67"/>
</a>
</g>
</g>
<!-- Node5 -->
<g id="Node000005" class="node">
<title>Node5</title>
<g id="a_Node000005"><a xlink:href="classcom_1_1teragrep_1_1pth__06_1_1metadata_1_1ArchiveS3ObjectMetadataStub.html" target="_top" xlink:title=" ">
<polygon fill="white" stroke="#666666" points="610,-30 439,-30 439,0 610,0 610,-30"/>
<text text-anchor="start" x="447" y="-18" font-family="Helvetica,sans-Serif" font-size="10.00">com.teragrep.pth_06.metadata.</text>
<text text-anchor="middle" x="524.5" y="-7" font-family="Helvetica,sans-Serif" font-size="10.00">ArchiveS3ObjectMetadataStub</text>
</a>
</g>
</g>
<!-- Node4&#45;&gt;Node5 -->
<g id="edge47_Node000004_Node000005" class="edge">
<title>Node4&#45;&gt;Node5</title>
<g id="a_edge47_Node000004_Node000005"><a xlink:title=" ">
<path fill="none" stroke="#63b8ff" d="M375.75,-45.83C400.54,-40.66 427.55,-35.02 451.61,-30"/>
<polygon fill="#63b8ff" stroke="#63b8ff" points="374.72,-42.47 365.64,-47.94 376.15,-49.33 374.72,-42.47"/>
</a>
</g>
</g>
<!-- Node7&#45;&gt;Node8 -->
<g id="edge49_Node000007_Node000008" class="edge">
<title>Node7&#45;&gt;Node8</title>
<g id="a_edge49_Node000007_Node000008"><a xlink:title=" ">
<path fill="none" stroke="#63b8ff" d="M375.75,-128.17C400.54,-133.34 427.55,-138.98 451.61,-144"/>
<polygon fill="#63b8ff" stroke="#63b8ff" points="376.15,-124.67 365.64,-126.06 374.72,-131.53 376.15,-124.67"/>
</a>
</g>
</g>
<!-- Node9 -->
<g id="Node000009" class="node">
<title>Node9</title>
<g id="a_Node000009"><a xlink:href="classcom_1_1teragrep_1_1pth__06_1_1metadata_1_1KafkaTopicPartitionOffsetMetadataStub.html" target="_top" xlink:title=" ">
<polygon fill="white" stroke="#666666" points="628,-78 421,-78 421,-48 628,-48 628,-78"/>
<text text-anchor="start" x="429" y="-66" font-family="Helvetica,sans-Serif" font-size="10.00">com.teragrep.pth_06.metadata.</text>
<text text-anchor="middle" x="524.5" y="-55" font-family="Helvetica,sans-Serif" font-size="10.00">KafkaTopicPartitionOffsetMetadataStub</text>
</a>
</g>
</g>
<!-- Node7&#45;&gt;Node9 -->
<g id="edge50_Node000007_Node000009" class="edge">
<title>Node7&#45;&gt;Node9</title>
<g id="a_edge50_Node000007_Node000009"><a xlink:title=" ">
<path fill="none" stroke="#63b8ff" d="M375.75,-93.83C400.54,-88.66 427.55,-83.02 451.61,-78"/>
<polygon fill="#63b8ff" stroke="#63b8ff" points="374.72,-90.47 365.64,-95.94 376.15,-97.33 374.72,-90.47"/>
</a>
</g>
</g>
</g>
</svg>
