<?xml version="1.0" encoding="UTF-8" standalone="no"?>
<!DOCTYPE svg PUBLIC "-//W3C//DTD SVG 1.1//EN"
 "http://www.w3.org/Graphics/SVG/1.1/DTD/svg11.dtd">
<!-- Generated by graphviz version 2.43.0 (0)
 -->
<!-- Title: com.teragrep.pth_06.metadata.ArchiveS3ObjectMetadata Pages: 1 -->
<svg width="586pt" height="86pt"
 viewBox="0.00 0.00 586.00 86.00" xmlns="http://www.w3.org/2000/svg" xmlns:xlink="http://www.w3.org/1999/xlink">
<g id="graph0" class="graph" transform="scale(1 1) rotate(0) translate(4 82)">
<title>com.teragrep.pth_06.metadata.ArchiveS3ObjectMetadata</title>
<!-- Node1 -->
<g id="Node000001" class="node">
<title>Node1</title>
<g id="a_Node000001"><a xlink:title=" ">
<polygon fill="#999999" stroke="#666666" points="371,-54 200,-54 200,-24 371,-24 371,-54"/>
<text text-anchor="start" x="208" y="-42" font-family="Helvetica,sans-Serif" font-size="10.00">com.teragrep.pth_06.metadata.</text>
<text text-anchor="middle" x="285.5" y="-31" font-family="Helvetica,sans-Serif" font-size="10.00">ArchiveS3ObjectMetadata</text>
</a>
</g>
</g>
<!-- Node3 -->
<g id="Node000003" class="node">
<title>Node3</title>
<g id="a_Node000003"><a xlink:href="classcom_1_1teragrep_1_1pth__06_1_1metadata_1_1ArchiveS3ObjectMetadataImpl.html" target="_top" xlink:title=" ">
<polygon fill="white" stroke="#666666" points="578,-78 407,-78 407,-48 578,-48 578,-78"/>
<text text-anchor="start" x="415" y="-66" font-family="Helvetica,sans-Serif" font-size="10.00">com.teragrep.pth_06.metadata.</text>
<text text-anchor="middle" x="492.5" y="-55" font-family="Helvetica,sans-Serif" font-size="10.00">ArchiveS3ObjectMetadataImpl</text>
</a>
</g>
</g>
<!-- Node1&#45;&gt;Node3 -->
<g id="edge2_Node000001_Node000003" class="edge">
<title>Node1&#45;&gt;Node3</title>
<g id="a_edge2_Node000001_Node000003"><a xlink:title=" ">
<path fill="none" stroke="#63b8ff" d="M381.09,-50.07C389.66,-51.08 398.31,-52.09 406.8,-53.08"/>
<polygon fill="#63b8ff" stroke="#63b8ff" points="381.4,-46.59 371.06,-48.9 380.59,-53.54 381.4,-46.59"/>
</a>
</g>
</g>
<!-- Node4 -->
<g id="Node000004" class="node">
<title>Node4</title>
<g id="a_Node000004"><a xlink:href="classcom_1_1teragrep_1_1pth__06_1_1metadata_1_1ArchiveS3ObjectMetadataStub.html" target="_top" xlink:title=" ">
<polygon fill="white" stroke="#666666" points="578,-30 407,-30 407,0 578,0 578,-30"/>
<text text-anchor="start" x="415" y="-18" font-family="Helvetica,sans-Serif" font-size="10.00">com.teragrep.pth_06.metadata.</text>
<text text-anchor="middle" x="492.5" y="-7" font-family="Helvetica,sans-Serif" font-size="10.00">ArchiveS3ObjectMetadataStub</text>
</a>
</g>
</g>
<!-- Node1&#45;&gt;Node4 -->
<g id="edge3_Node000001_Node000004" class="edge">
<title>Node1&#45;&gt;Node4</title>
<g id="a_edge3_Node000001_Node000004"><a xlink:title=" ">
<path fill="none" stroke="#63b8ff" d="M381.09,-27.93C389.66,-26.92 398.31,-25.91 406.8,-24.92"/>
<polygon fill="#63b8ff" stroke="#63b8ff" points="380.59,-24.46 371.06,-29.1 381.4,-31.41 380.59,-24.46"/>
</a>
</g>
</g>
<!-- Node2 -->
<g id="Node000002" class="node">
<title>Node2</title>
<g id="a_Node000002"><a xlink:href="interfacecom_1_1teragrep_1_1pth__06_1_1Stubable.html" target="_top" xlink:title=" ">
<polygon fill="white" stroke="#666666" points="164,-48.5 0,-48.5 0,-29.5 164,-29.5 164,-48.5"/>
<text text-anchor="middle" x="82" y="-36.5" font-family="Helvetica,sans-Serif" font-size="10.00">com.teragrep.pth_06.Stubable</text>
</a>
</g>
</g>
<!-- Node2&#45;&gt;Node1 -->
<g id="edge1_Node000001_Node000002" class="edge">
<title>Node2&#45;&gt;Node1</title>
<g id="a_edge1_Node000001_Node000002"><a xlink:title=" ">
<path fill="none" stroke="#63b8ff" d="M174.13,-39C182.73,-39 191.42,-39 199.96,-39"/>
<polygon fill="#63b8ff" stroke="#63b8ff" points="174.09,-35.5 164.09,-39 174.09,-42.5 174.09,-35.5"/>
</a>
</g>
</g>
</g>
</svg>
