<?xml version="1.0" encoding="UTF-8" standalone="no"?>
<!DOCTYPE svg PUBLIC "-//W3C//DTD SVG 1.1//EN"
 "http://www.w3.org/Graphics/SVG/1.1/DTD/svg11.dtd">
<!-- Generated by graphviz version 2.43.0 (0)
 -->
<!-- Title: com.teragrep.pth_06.metadata.KafkaTopicPartitionOffsetMetadata Pages: 1 -->
<svg width="636pt" height="86pt"
 viewBox="0.00 0.00 636.00 86.00" xmlns="http://www.w3.org/2000/svg" xmlns:xlink="http://www.w3.org/1999/xlink">
<g id="graph0" class="graph" transform="scale(1 1) rotate(0) translate(4 82)">
<title>com.teragrep.pth_06.metadata.KafkaTopicPartitionOffsetMetadata</title>
<!-- Node1 -->
<g id="Node000001" class="node">
<title>Node1</title>
<g id="a_Node000001"><a xlink:title=" ">
<polygon fill="#999999" stroke="#666666" points="385,-54 200,-54 200,-24 385,-24 385,-54"/>
<text text-anchor="start" x="208" y="-42" font-family="Helvetica,sans-Serif" font-size="10.00">com.teragrep.pth_06.metadata.</text>
<text text-anchor="middle" x="292.5" y="-31" font-family="Helvetica,sans-Serif" font-size="10.00">KafkaTopicPartitionOffsetMetadata</text>
</a>
</g>
</g>
<!-- Node3 -->
<g id="Node000003" class="node">
<title>Node3</title>
<g id="a_Node000003"><a xlink:href="classcom_1_1teragrep_1_1pth__06_1_1metadata_1_1KafkaTopicPartitionOffsetMetadataImpl.html" target="_top" xlink:title=" ">
<polygon fill="white" stroke="#666666" points="628,-78 421,-78 421,-48 628,-48 628,-78"/>
<text text-anchor="start" x="429" y="-66" font-family="Helvetica,sans-Serif" font-size="10.00">com.teragrep.pth_06.metadata.</text>
<text text-anchor="middle" x="524.5" y="-55" font-family="Helvetica,sans-Serif" font-size="10.00">KafkaTopicPartitionOffsetMetadataImpl</text>
</a>
</g>
</g>
<!-- Node1&#45;&gt;Node3 -->
<g id="edge2_Node000001_Node000003" class="edge">
<title>Node1&#45;&gt;Node3</title>
<g id="a_edge2_Node000001_Node000003"><a xlink:title=" ">
<path fill="none" stroke="#63b8ff" d="M395.07,-49.6C403.64,-50.49 412.31,-51.4 420.89,-52.29"/>
<polygon fill="#63b8ff" stroke="#63b8ff" points="395.37,-46.11 385.06,-48.55 394.65,-53.07 395.37,-46.11"/>
</a>
</g>
</g>
<!-- Node4 -->
<g id="Node000004" class="node">
<title>Node4</title>
<g id="a_Node000004"><a xlink:href="classcom_1_1teragrep_1_1pth__06_1_1metadata_1_1KafkaTopicPartitionOffsetMetadataStub.html" target="_top" xlink:title=" ">
<polygon fill="white" stroke="#666666" points="628,-30 421,-30 421,0 628,0 628,-30"/>
<text text-anchor="start" x="429" y="-18" font-family="Helvetica,sans-Serif" font-size="10.00">com.teragrep.pth_06.metadata.</text>
<text text-anchor="middle" x="524.5" y="-7" font-family="Helvetica,sans-Serif" font-size="10.00">KafkaTopicPartitionOffsetMetadataStub</text>
</a>
</g>
</g>
<!-- Node1&#45;&gt;Node4 -->
<g id="edge3_Node000001_Node000004" class="edge">
<title>Node1&#45;&gt;Node4</title>
<g id="a_edge3_Node000001_Node000004"><a xlink:title=" ">
<path fill="none" stroke="#63b8ff" d="M395.07,-28.4C403.64,-27.51 412.31,-26.6 420.89,-25.71"/>
<polygon fill="#63b8ff" stroke="#63b8ff" points="394.65,-24.93 385.06,-29.45 395.37,-31.89 394.65,-24.93"/>
</a>
</g>
</g>
<!-- Node2 -->
<g id="Node000002" class="node">
<title>Node2</title>
<g id="a_Node000002"><a xlink:href="interfacecom_1_1teragrep_1_1pth__06_1_1Stubable.html" target="_top" xlink:title=" ">
<polygon fill="white" stroke="#666666" points="164,-48.5 0,-48.5 0,-29.5 164,-29.5 164,-48.5"/>
<text text-anchor="middle" x="82" y="-36.5" font-family="Helvetica,sans-Serif" font-size="10.00">com.teragrep.pth_06.Stubable</text>
</a>
</g>
</g>
<!-- Node2&#45;&gt;Node1 -->
<g id="edge1_Node000001_Node000002" class="edge">
<title>Node2&#45;&gt;Node1</title>
<g id="a_edge1_Node000001_Node000002"><a xlink:title=" ">
<path fill="none" stroke="#63b8ff" d="M174.41,-39C182.83,-39 191.36,-39 199.79,-39"/>
<polygon fill="#63b8ff" stroke="#63b8ff" points="174.21,-35.5 164.21,-39 174.21,-42.5 174.21,-35.5"/>
</a>
</g>
</g>
</g>
</svg>
