<?xml version="1.0" encoding="UTF-8" standalone="no"?>
<!DOCTYPE svg PUBLIC "-//W3C//DTD SVG 1.1//EN"
 "http://www.w3.org/Graphics/SVG/1.1/DTD/svg11.dtd">
<!-- Generated by graphviz version 2.43.0 (0)
 -->
<!-- Title: com.teragrep.pth_06.Stubable Pages: 1 -->
<svg width="636pt" height="182pt"
 viewBox="0.00 0.00 636.00 182.00" xmlns="http://www.w3.org/2000/svg" xmlns:xlink="http://www.w3.org/1999/xlink">
<g id="graph0" class="graph" transform="scale(1 1) rotate(0) translate(4 178)">
<title>com.teragrep.pth_06.Stubable</title>
<!-- Node1 -->
<g id="Node000001" class="node">
<title>Node1</title>
<g id="a_Node000001"><a xlink:title=" ">
<polygon fill="#999999" stroke="#666666" points="164,-96.5 0,-96.5 0,-77.5 164,-77.5 164,-96.5"/>
<text text-anchor="middle" x="82" y="-84.5" font-family="Helvetica,sans-Serif" font-size="10.00">com.teragrep.pth_06.Stubable</text>
</a>
</g>
</g>
<!-- Node2 -->
<g id="Node000002" class="node">
<title>Node2</title>
<g id="a_Node000002"><a xlink:href="interfacecom_1_1teragrep_1_1pth__06_1_1metadata_1_1ArchiveS3ObjectMetadata.html" target="_top" xlink:title=" ">
<polygon fill="white" stroke="#666666" points="378,-126 207,-126 207,-96 378,-96 378,-126"/>
<text text-anchor="start" x="215" y="-114" font-family="Helvetica,sans-Serif" font-size="10.00">com.teragrep.pth_06.metadata.</text>
<text text-anchor="middle" x="292.5" y="-103" font-family="Helvetica,sans-Serif" font-size="10.00">ArchiveS3ObjectMetadata</text>
</a>
</g>
</g>
<!-- Node1&#45;&gt;Node2 -->
<g id="edge1_Node000001_Node000002" class="edge">
<title>Node1&#45;&gt;Node2</title>
<g id="a_edge1_Node000001_Node000002"><a xlink:title=" ">
<path fill="none" stroke="#63b8ff" d="M174.43,-97.52C185.17,-98.76 196.09,-100.02 206.73,-101.24"/>
<polygon fill="#63b8ff" stroke="#63b8ff" points="174.54,-94.01 164.21,-96.35 173.74,-100.97 174.54,-94.01"/>
</a>
</g>
</g>
<!-- Node5 -->
<g id="Node000005" class="node">
<title>Node5</title>
<g id="a_Node000005"><a xlink:href="interfacecom_1_1teragrep_1_1pth__06_1_1metadata_1_1KafkaTopicPartitionOffsetMetadata.html" target="_top" xlink:title=" ">
<polygon fill="white" stroke="#666666" points="385,-78 200,-78 200,-48 385,-48 385,-78"/>
<text text-anchor="start" x="208" y="-66" font-family="Helvetica,sans-Serif" font-size="10.00">com.teragrep.pth_06.metadata.</text>
<text text-anchor="middle" x="292.5" y="-55" font-family="Helvetica,sans-Serif" font-size="10.00">KafkaTopicPartitionOffsetMetadata</text>
</a>
</g>
</g>
<!-- Node1&#45;&gt;Node5 -->
<g id="edge4_Node000001_Node000005" class="edge">
<title>Node1&#45;&gt;Node5</title>
<g id="a_edge4_Node000001_Node000005"><a xlink:title=" ">
<path fill="none" stroke="#63b8ff" d="M174.41,-76.48C182.83,-75.51 191.36,-74.53 199.79,-73.56"/>
<polygon fill="#63b8ff" stroke="#63b8ff" points="173.74,-73.03 164.21,-77.65 174.54,-79.99 173.74,-73.03"/>
</a>
</g>
</g>
<!-- Node3 -->
<g id="Node000003" class="node">
<title>Node3</title>
<g id="a_Node000003"><a xlink:href="classcom_1_1teragrep_1_1pth__06_1_1metadata_1_1ArchiveS3ObjectMetadataImpl.html" target="_top" xlink:title=" ">
<polygon fill="white" stroke="#666666" points="610,-174 439,-174 439,-144 610,-144 610,-174"/>
<text text-anchor="start" x="447" y="-162" font-family="Helvetica,sans-Serif" font-size="10.00">com.teragrep.pth_06.metadata.</text>
<text text-anchor="middle" x="524.5" y="-151" font-family="Helvetica,sans-Serif" font-size="10.00">ArchiveS3ObjectMetadataImpl</text>
</a>
</g>
</g>
<!-- Node2&#45;&gt;Node3 -->
<g id="edge2_Node000002_Node000003" class="edge">
<title>Node2&#45;&gt;Node3</title>
<g id="a_edge2_Node000002_Node000003"><a xlink:title=" ">
<path fill="none" stroke="#63b8ff" d="M375.75,-128.17C400.54,-133.34 427.55,-138.98 451.61,-144"/>
<polygon fill="#63b8ff" stroke="#63b8ff" points="376.15,-124.67 365.64,-126.06 374.72,-131.53 376.15,-124.67"/>
</a>
</g>
</g>
<!-- Node4 -->
<g id="Node000004" class="node">
<title>Node4</title>
<g id="a_Node000004"><a xlink:href="classcom_1_1teragrep_1_1pth__06_1_1metadata_1_1ArchiveS3ObjectMetadataStub.html" target="_top" xlink:title=" ">
<polygon fill="white" stroke="#666666" points="610,-126 439,-126 439,-96 610,-96 610,-126"/>
<text text-anchor="start" x="447" y="-114" font-family="Helvetica,sans-Serif" font-size="10.00">com.teragrep.pth_06.metadata.</text>
<text text-anchor="middle" x="524.5" y="-103" font-family="Helvetica,sans-Serif" font-size="10.00">ArchiveS3ObjectMetadataStub</text>
</a>
</g>
</g>
<!-- Node2&#45;&gt;Node4 -->
<g id="edge3_Node000002_Node000004" class="edge">
<title>Node2&#45;&gt;Node4</title>
<g id="a_edge3_Node000002_Node000004"><a xlink:title=" ">
<path fill="none" stroke="#63b8ff" d="M388.44,-111C405.07,-111 422.29,-111 438.63,-111"/>
<polygon fill="#63b8ff" stroke="#63b8ff" points="388.16,-107.5 378.16,-111 388.16,-114.5 388.16,-107.5"/>
</a>
</g>
</g>
<!-- Node6 -->
<g id="Node000006" class="node">
<title>Node6</title>
<g id="a_Node000006"><a xlink:href="classcom_1_1teragrep_1_1pth__06_1_1metadata_1_1KafkaTopicPartitionOffsetMetadataImpl.html" target="_top" xlink:title=" ">
<polygon fill="white" stroke="#666666" points="628,-78 421,-78 421,-48 628,-48 628,-78"/>
<text text-anchor="start" x="429" y="-66" font-family="Helvetica,sans-Serif" font-size="10.00">com.teragrep.pth_06.metadata.</text>
<text text-anchor="middle" x="524.5" y="-55" font-family="Helvetica,sans-Serif" font-size="10.00">KafkaTopicPartitionOffsetMetadataImpl</text>
</a>
</g>
</g>
<!-- Node5&#45;&gt;Node6 -->
<g id="edge5_Node000005_Node000006" class="edge">
<title>Node5&#45;&gt;Node6</title>
<g id="a_edge5_Node000005_Node000006"><a xlink:title=" ">
<path fill="none" stroke="#63b8ff" d="M395.07,-63C403.64,-63 412.31,-63 420.89,-63"/>
<polygon fill="#63b8ff" stroke="#63b8ff" points="395.06,-59.5 385.06,-63 395.06,-66.5 395.06,-59.5"/>
</a>
</g>
</g>
<!-- Node7 -->
<g id="Node000007" class="node">
<title>Node7</title>
<g id="a_Node000007"><a xlink:href="classcom_1_1teragrep_1_1pth__06_1_1metadata_1_1KafkaTopicPartitionOffsetMetadataStub.html" target="_top" xlink:title=" ">
<polygon fill="white" stroke="#666666" points="628,-30 421,-30 421,0 628,0 628,-30"/>
<text text-anchor="start" x="429" y="-18" font-family="Helvetica,sans-Serif" font-size="10.00">com.teragrep.pth_06.metadata.</text>
<text text-anchor="middle" x="524.5" y="-7" font-family="Helvetica,sans-Serif" font-size="10.00">KafkaTopicPartitionOffsetMetadataStub</text>
</a>
</g>
</g>
<!-- Node5&#45;&gt;Node7 -->
<g id="edge6_Node000005_Node000007" class="edge">
<title>Node5&#45;&gt;Node7</title>
<g id="a_edge6_Node000005_Node000007"><a xlink:title=" ">
<path fill="none" stroke="#63b8ff" d="M375.75,-45.83C400.54,-40.66 427.55,-35.02 451.61,-30"/>
<polygon fill="#63b8ff" stroke="#63b8ff" points="374.72,-42.47 365.64,-47.94 376.15,-49.33 374.72,-42.47"/>
</a>
</g>
</g>
</g>
</svg>
